inDegrees=no
num_controls=7
num_derivatives=13
num_iterations=132
num_multipliers=7
num_parameters=0
num_slacks=7
num_states=26
objective=0.445762
objective_accelerations=0.057336
objective_balance=0.003556
objective_effort=0.022947
objective_height=0.356381
objective_ligament=0.005543
solver_duration=1776.573467
status=Solve_Succeeded
success=true
DataType=double
version=3
OpenSimVersion=4.5
endheader
time	/jointset/ground_pelvis/pelvis_tilt/value	/jointset/ground_pelvis/pelvis_tx/value	/jointset/ground_pelvis/pelvis_ty/value	/jointset/hip_l/hip_flexion_l/value	/jointset/hip_l/hip_adduction_l/value	/jointset/hip_l/hip_rotation_l/value	/jointset/back/lumbar_extension/value	/jointset/patellofemoral_l/patellar_flexion_l/value	/jointset/knee_l/knee_flexion_l/value	/jointset/knee_l/knee_adduction_l/value	/jointset/knee_l/knee_rotation_l/value	/jointset/ankle_l/ankle_angle_l/value	/jointset/subtalar_l/subtalar_angle_l/value	/jointset/ground_pelvis/pelvis_tilt/speed	/jointset/ground_pelvis/pelvis_tx/speed	/jointset/ground_pelvis/pelvis_ty/speed	/jointset/hip_l/hip_flexion_l/speed	/jointset/hip_l/hip_adduction_l/speed	/jointset/hip_l/hip_rotation_l/speed	/jointset/back/lumbar_extension/speed	/jointset/patellofemoral_l/patellar_flexion_l/speed	/jointset/knee_l/knee_flexion_l/speed	/jointset/knee_l/knee_adduction_l/speed	/jointset/knee_l/knee_rotation_l/speed	/jointset/ankle_l/ankle_angle_l/speed	/jointset/subtalar_l/subtalar_angle_l/speed	/forceset/tau_hip_flexion_l	/forceset/tau_hip_adduction_l	/forceset/tau_hip_rotation_l	/forceset/tau_knee_flexion_l	/forceset/tau_ankle_angle_l	/forceset/tau_subtalar_angle_l	/forceset/tau_lumbar_extension	lambda_cid13_p0	lambda_cid13_p1	lambda_cid13_p2	lambda_cid13_p3	lambda_cid13_p4	lambda_cid13_p5	lambda_cid14_p0	/jointset/ground_pelvis/pelvis_tilt/accel	/jointset/ground_pelvis/pelvis_tx/accel	/jointset/ground_pelvis/pelvis_ty/accel	/jointset/hip_l/hip_flexion_l/accel	/jointset/hip_l/hip_adduction_l/accel	/jointset/hip_l/hip_rotation_l/accel	/jointset/back/lumbar_extension/accel	/jointset/patellofemoral_l/patellar_flexion_l/accel	/jointset/knee_l/knee_flexion_l/accel	/jointset/knee_l/knee_adduction_l/accel	/jointset/knee_l/knee_rotation_l/accel	/jointset/ankle_l/ankle_angle_l/accel	/jointset/subtalar_l/subtalar_angle_l/accel	gamma_cid13_p0	gamma_cid13_p1	gamma_cid13_p2	gamma_cid13_p3	gamma_cid13_p4	gamma_cid13_p5	gamma_cid14_p0
0.5	-0.3413844233769899	-0.04014448249486631	0.7604222508409051	1.099895861708486	-0.4361401985825632	-0.2240148207872205	-0.253679485494926	0.8021807550363078	0.8021807550362728	-0.1283726448720874	-0.1584355179307178	0.102988941184725	-0.03438975427892964	-0.7790008053422394	-0.2175545214583023	-0.5303304378546663	2.482215123048694	-0.2063990836128722	0.7445538191989225	-0.1195145413865277	1.980623594251169	1.980623594251154	0.1263792053401131	-0.08658182293208642	0.4478024882363462	-0.007696021034596483	-0.1676649398575826	0.0165662993641331	-0.01128360990152246	-0.220595587163786	0.07244644325239058	0.04526833681436065	0.1660026814063646	-9.473775323935275	-21.13310494639105	6.61061013812945	-7.511109134797314	-521.5243334548787	-64.26043846554109	-25.37315804036651	0.7601232616183873	0.611947613259432	-0.4678876367054415	-1.305750272572353	0.7262043031231925	-0.1930539721027458	1.045529828627381	-1.220031409576035	-1.220031409576047	0.06803892842281908	0.1640485897818098	-0.4733836973056951	0.5421057738606233	-5.489884002146942e-07	-5.244228078924482e-07	2.63600059750443e-06	1.201407656299547e-07	-6.266342728188925e-07	2.395145394320352e-08	-4.509752649718143e-07
0.51	-0.3491345143444849	-0.0422891299372719	0.7550967487257862	1.124647719914004	-0.4381690180930202	-0.2165779344000132	-0.2548234379271042	0.8219227893660772	0.8219227893660909	-0.1271096865932657	-0.1592927515636937	0.1074421001019559	-0.03444151004816303	-0.7709047022999408	-0.2113527329694434	-0.5346535171534335	2.467804179137866	-0.1993489672752889	0.7427244442244902	-0.1093038926455707	1.96750811874513	1.967508118745122	0.1262020085884804	-0.08485496326072769	0.4427571007759885	-0.002665855327721737	-0.1732950326497735	0.01724277449834889	-0.01135419757496208	-0.223217964874927	0.07185418514471903	0.0457672880967487	0.1703220668843981	-9.865987008250354	-21.26620681296974	6.614788015268634	-7.45570053504505	-525.2171318719849	-64.00272200341996	-24.46265948303848	0.8511914925920291	0.627656442043781	-0.3971706949022168	-1.561694182724444	0.6965048307598435	-0.1931197617187803	1.004640257401062	-1.398489165406507	-1.398489165405409	-0.06213795730929524	0.1790359727887004	-0.5309442961577944	0.481625884834642	-5.356699728505392e-07	-4.268803598373291e-07	2.671768480538887e-06	1.403566826294048e-07	-6.015538333522629e-07	9.387130326224388e-08	-4.433549740522222e-07
0.52	-0.3568002767481461	-0.04437108709971997	0.7497314852939916	1.149244883133935	-0.4401269185337651	-0.2091623898628704	-0.2558661222997587	0.841525432231926	0.8415254322319928	-0.1258488080780256	-0.1601323103365686	0.1118426395394318	-0.03444333337718093	-0.7621350925753829	-0.2050164654667993	-0.5382827011897965	2.451276125931583	-0.1922152696703477	0.740285449185845	-0.09926092948176449	1.952745301467543	1.952745301467543	0.1259632526227286	-0.08304685091033555	0.4372785922853511	0.002290467008502741	-0.1789251254419723	0.01791924963256562	-0.01142478524833488	-0.2258403425860725	0.07126192703704826	0.04626623937913785	0.174641452362423	-10.26134028926211	-21.39985571206232	6.620307916230954	-7.435073392532128	-528.9860027557161	-63.80405824304043	-23.55317763057054	0.8948245980703061	0.6388434160164557	-0.3291085842246306	-1.729172131663368	0.7429205565947854	-0.3149779849453058	1.011992713197218	-1.549499763885517	-1.549499763885518	0.05572708559903715	0.1802991255884961	-0.5600079033616496	0.527337099730562	-5.20377512924285e-07	-3.619905682991096e-07	2.672411724920474e-06	1.525190394157416e-07	-5.761975407831682e-07	1.611200896221979e-07	-4.359976115130442e-07
0.53	-0.3643751247439502	-0.04638911116440906	0.7443334155219048	1.173666535542569	-0.4420130485546875	-0.2017741310796279	-0.2568092670790948	0.8609724363452481	0.860972436345243	-0.1245905359721492	-0.1609533374904366	0.116186308819401	-0.03439590857327231	-0.7527265628667877	-0.1985755567507697	-0.5412118246809151	2.432716039531926	-0.1849994811750495	0.7372610688355183	-0.08941167906027157	1.936393806984999	1.936393806985022	0.1256889639970069	-0.08115300484580296	0.4313865313877642	0.007180628070158317	-0.1845255820037971	0.01859866973056694	-0.01143613909554594	-0.2283512889879166	0.07047508101807151	0.04654332115057955	0.1788831668654192	-10.72393870796158	-21.41760699204008	6.598478766420211	-7.249315247242597	-532.7228516104362	-63.42797810246797	-22.64614883334423	0.9799936904701708	0.6486649888573658	-0.2570125253818907	-1.97025040617051	0.7122900147817651	-0.3123233676339676	0.964843305450316	-1.717144995579912	-1.717144995576409	-0.06930132979769729	0.1953046408502574	-0.6141061489015482	0.467516504161367	-5.046147777416079e-07	-2.78625991557711e-07	2.686283153301656e-06	1.726697283840535e-07	-5.546560259047807e-07	2.293806820807685e-07	-4.264566974319415e-07
